<svg xmlns="http://www.w3.org/2000/svg" width="240" height="38" viewBox="0 0 240 38"><g><g><g><path fill="#fff" d="M54.996 28.537c-2.641-2.695-3.982-5.985-3.982-9.948 0-3.964 1.341-7.253 3.982-9.909 2.642-2.695 5.993-4.042 10.014-4.042 4.849 0 9.225 2.457 11.512 6.42l-3.824 2.22c-1.42-2.656-4.337-4.36-7.688-4.36-2.878 0-5.165.912-6.939 2.735s-2.641 4.122-2.641 6.896c0 2.814.867 5.113 2.641 6.896 1.814 1.823 4.1 2.735 6.939 2.735 3.351 0 6.308-1.704 7.688-4.36L76.522 26c-1.104 1.942-2.721 3.528-4.771 4.717-2.01 1.149-4.297 1.743-6.741 1.743-3.982.08-7.372-1.268-10.014-3.923z"/></g><g><path fill="#fff" d="M80 31.265V3.478h4.638v27.826H80z"/></g><g><path fill="#fff" d="M92.421 21.063c.553-2.821 2.686-4.599 5.767-4.599 2.726 0 4.898 1.546 5.491 4.599zm15.247 3.285c.119-.735.158-1.276.158-1.701 0-2.744-.908-5.101-2.725-6.995-1.778-1.932-4.069-2.898-6.873-2.898-2.923 0-5.372.966-7.268 2.859-1.896 1.856-2.844 4.174-2.844 6.996 0 2.821.988 5.217 2.883 7.072 1.936 1.855 4.424 2.783 7.545 2.783 3.713 0 6.478-1.353 8.374-4.097l-3.397-1.932c-1.106 1.546-2.765 2.319-4.938 2.319-3.16 0-5.49-1.546-6.122-4.406z"/></g><g><path fill="#fff" d="M124.193 12.754h4.503l-7.466 18.55h-4.779l-7.466-18.55h4.503l5.372 14.075z"/></g><g><path fill="#fff" d="M133.001 21.063c.553-2.821 2.686-4.599 5.767-4.599 2.725 0 4.898 1.546 5.49 4.599zm15.247 3.285c.118-.735.158-1.276.158-1.701 0-2.744-.909-5.101-2.726-6.995-1.777-1.932-4.068-2.898-6.873-2.898-2.922 0-5.371.966-7.267 2.859-1.896 1.856-2.844 4.174-2.844 6.996 0 2.821.987 5.217 2.883 7.072 1.936 1.855 4.424 2.783 7.544 2.783 3.713 0 6.478-1.353 8.374-4.097l-3.397-1.932c-1.106 1.546-2.765 2.319-4.937 2.319-3.16 0-5.49-1.546-6.122-4.406z"/></g><g><path fill="#fff" d="M156.222 16.14c1.064-2.258 3.151-3.386 6.097-3.386v4.252c-1.637-.113-3.069.263-4.297 1.091-1.227.79-1.841 2.145-1.841 4.026v9.181h-4.297V13.092h4.297v3.048z"/></g><g><path fill="#fff" d="M171.478 26.665c-1.106-1.208-1.678-2.658-1.678-4.47 0-1.772.572-3.262 1.678-4.43 1.143-1.208 2.516-1.812 4.193-1.812 1.678 0 3.088.604 4.194 1.812 1.106 1.168 1.677 2.618 1.677 4.43 0 1.772-.571 3.262-1.677 4.47-1.144 1.168-2.516 1.772-4.194 1.772-1.677 0-3.088-.604-4.193-1.772zm4.803-14.698c-2.821 0-4.956 1.087-6.481 3.261V4.638h-4.003v27.343h4.003v-2.819c1.525 2.214 3.66 3.302 6.481 3.302 2.555 0 4.689-1.007 6.519-2.98s2.707-4.43 2.707-7.289-.877-5.315-2.707-7.289c-1.83-2.013-3.964-2.98-6.519-2.939z"/></g><g><path fill="#fff" d="M193.859 26.821c-1.182-1.159-1.794-2.551-1.794-4.251 0-1.7.612-3.13 1.794-4.251 1.223-1.121 2.649-1.701 4.402-1.701 1.753 0 3.22.58 4.402 1.701 1.182 1.159 1.794 2.551 1.794 4.251 0 1.7-.612 3.13-1.794 4.251-1.182 1.121-2.649 1.701-4.402 1.701-1.712 0-3.179-.58-4.402-1.701zm4.402 5.643c2.894 0 5.34-.966 7.378-2.86 2.038-1.894 3.057-4.213 3.057-6.995 0-2.744-1.06-5.102-3.057-6.996-1.998-1.932-4.443-2.859-7.378-2.859-2.853 0-5.381.966-7.378 2.859-2.038 1.894-3.057 4.213-3.057 6.996 0 2.744 1.06 5.101 3.057 6.995 1.997 1.932 4.484 2.86 7.378 2.86z"/></g><g><path fill="#fff" d="M222.609 16.599h-4.874v9.52c0 2.533 1.665 2.492 4.874 2.329v3.84c-6.499.777-9.139-.98-9.139-6.169v-9.52h-3.615v-4.086h3.615v-4.29l4.265-1.266v5.556h4.874z"/></g><g><path fill="#fff" d="M232.869 20.808c3.145.62 7.214 1.82 7.13 5.847 0 1.82-.755 3.214-2.265 4.26-1.51 1.007-3.355 1.549-5.662 1.549-4.026 0-7.004-1.665-8.304-4.376l3.775-2.014c.671 1.82 2.181 2.711 4.529 2.711 2.307 0 3.439-.697 3.439-2.091 0-1.2-1.719-1.897-3.858-2.401-3.062-.697-7.172-1.859-7.088-5.77 0-1.742.671-3.098 2.097-4.182 1.426-1.084 3.229-1.587 5.326-1.587 3.355 0 6.082 1.471 7.507 3.911l-3.69 1.897c-.671-1.433-2.013-2.13-3.817-2.13-1.677 0-2.977.659-2.977 1.975.042 1.201 1.761 1.859 3.858 2.401z"/></g><g><path fill="#865dcf" d="M24.881 31.083l-10.038-.04c-1.071 0-2.063-.558-2.579-1.514L7.265 20.84a3.086 3.086 0 0 1 0-2.99l5.039-8.728c.516-.917.555-2.073 0-2.99-1.151-1.993-4.007-1.993-5.158 0L.402 17.81c-.516.917-.556 2.073 0 2.99l8.411 14.747a2.98 2.98 0 0 0 2.579 1.515l13.449.04c2.301 0 3.729-2.472 2.579-4.465-.516-.956-1.508-1.554-2.539-1.554z"/></g><g><path fill="#59c0cf" d="M29.956 27.94l4.831-8.729c.495-.917.533-2.072 0-2.989l-4.793-8.729c-.495-.917-1.446-1.514-2.473-1.514h-9.586a2.768 2.768 0 0 1-2.473-1.515C14.359 2.471 15.728 0 17.935 0l12.896.04c1.027 0 1.978.558 2.473 1.514l8.064 14.748a3.194 3.194 0 0 1 0 2.989l-6.467 11.678c-1.103 1.993-3.842 1.993-4.945 0-.533-.957-.495-2.112 0-3.029z"/></g></g></g></svg>